<?xml version="1.0" encoding="utf-8"?>
<!-- Generator: Adobe Illustrator 21.1.0, SVG Export Plug-In . SVG Version: 6.00 Build 0)  -->
<svg version="1.1" id="Ebene_1" xmlns="http://www.w3.org/2000/svg" xmlns:xlink="http://www.w3.org/1999/xlink" x="0px" y="0px"
	 viewBox="0 0 256.2 76.4" style="enable-background:new 0 0 256.2 76.4;" xml:space="preserve">
<style type="text/css">
	.st0{fill:#868686;}
	.st1{fill:#009EE2;}
	.st2{fill:#6F6F6E;}
</style>
<g>
	<path class="st0" d="M135.4,44.8c0,1.4-0.3,2.9-1,4.5s-1.8,3.2-3.2,4.7s-3.3,2.8-5.6,3.8c-2.3,1-4.9,1.5-7.9,1.5
		c-2.3,0-4.4-0.2-6.2-0.7c-1.9-0.4-3.6-1.1-5.1-2s-2.9-2.1-4.2-3.6c-1.1-1.4-2.1-2.9-2.9-4.6C98.6,46.8,98,45,97.6,43S97,39.1,97,37
		c0-3.5,0.5-6.6,1.5-9.4s2.5-5.1,4.4-7.1s4.1-3.5,6.7-4.5c2.5-1,5.3-1.5,8.1-1.5c3.5,0,6.6,0.7,9.4,2.1c2.7,1.4,4.8,3.1,6.3,5.2
		s2.2,4,2.2,5.8c0,1-0.4,1.9-1.1,2.7c-0.7,0.8-1.6,1.2-2.6,1.2c-1.1,0-2-0.3-2.5-0.8c-0.6-0.5-1.2-1.5-1.9-2.8
		c-1.1-2.1-2.5-3.8-4-4.8c-1.5-1.1-3.5-1.6-5.7-1.6c-3.6,0-6.5,1.4-8.6,4.1s-3.2,6.6-3.2,11.7c0,3.4,0.5,6.2,1.4,8.4
		c0.9,2.2,2.3,3.9,4,5s3.8,1.7,6.1,1.7c2.5,0,4.7-0.6,6.4-1.9c1.7-1.3,3.1-3.1,4-5.5c0.4-1.1,0.8-2.1,1.4-2.8s1.4-1.1,2.7-1.1
		c1,0,1.9,0.4,2.7,1.1C135.2,42.8,135.4,43.7,135.4,44.8z"/>
	<path class="st0" d="M143.4,40.6V19.7c0-1.8,0.4-3.1,1.2-4s1.8-1.3,3.2-1.3s2.4,0.4,3.2,1.3c0.8,0.9,1.2,2.2,1.2,4V41
		c0,2.4,0.3,4.5,0.8,6.1s1.5,2.9,2.9,3.8c1.4,0.9,3.3,1.3,5.8,1.3c3.4,0,5.9-0.9,7.3-2.7c1.4-1.8,2.1-4.6,2.1-8.3V19.7
		c0-1.8,0.4-3.1,1.2-4s1.8-1.3,3.2-1.3c1.3,0,2.4,0.4,3.2,1.3c0.8,0.9,1.2,2.2,1.2,4v20.9c0,3.4-0.3,6.2-1,8.5s-1.9,4.3-3.7,6
		c-1.6,1.5-3.4,2.5-5.5,3.2s-4.5,1-7.3,1c-3.3,0-6.2-0.4-8.6-1.1c-2.4-0.7-4.4-1.8-5.9-3.3s-2.6-3.4-3.3-5.8
		C143.9,46.7,143.4,43.8,143.4,40.6z"/>
	<path class="st0" d="M206.2,40.9h-8v12.3c0,1.8-0.4,3.1-1.2,4s-1.9,1.4-3.1,1.4c-1.3,0-2.4-0.4-3.2-1.3c-0.8-0.9-1.2-2.2-1.2-4
		V19.8c0-1.9,0.4-3.3,1.3-4.1c0.9-0.8,2.3-1.2,4.2-1.2h11.3c3.3,0,5.9,0.3,7.7,0.8s3.3,1.3,4.6,2.5c1.3,1.1,2.3,2.5,2.9,4.2
		c0.7,1.7,1,3.5,1,5.6c0,4.4-1.4,7.8-4.1,10C215.8,39.7,211.7,40.9,206.2,40.9z M204.2,21h-5.9v13.3h5.9c2.1,0,3.8-0.2,5.2-0.7
		c1.4-0.4,2.4-1.1,3.2-2.1c0.7-1,1.1-2.3,1.1-3.9c0-1.9-0.6-3.5-1.7-4.7C210.7,21.6,208.1,21,204.2,21z"/>
	<path class="st1" d="M86,16c-8.7-3.4-18.5-1.3-25.1,5.2c-6.7-6.8-17-8.8-25.7-4.8c-0.9,0.4-1.5,1.3-1.5,2.3v38.5
		c0,1.3,1,2.3,2.3,2.3c0.3,0,0.6,0,0.8-0.1c6.9-2.5,14.5-1.6,20.6,2.5c1,0.7,2.3,1.1,3.5,1.1c1.2,0,2.4-0.4,3.4-1
		c5.9-4,13.4-5.1,20.2-2.9c0.2,0.1,0.5,0.1,0.7,0.1c1.3,0,2.3-1.1,2.3-2.3V18.3C87.7,17.3,87,16.3,86,16z M57.4,28v26.1
		c-5.2-2.5-11.1-3.4-16.8-2.5V21.7c5.6-1.5,11.6,0.1,15.6,4.3c0.5,0.6,0.9,1.2,1.2,1.8C57.4,27.8,57.4,27.9,57.4,28z M81,51.3
		L81,51.3c-5.8-0.5-11.7,0.5-16.9,3.1V28l0,0c0.6-0.7,1.1-1.5,1.6-1.9c3.1-3.1,7.4-4.9,11.9-4.9c1.1,0,2.3,0.1,3.4,0.3V51.3z"/>
	<path class="st1" d="M66.5,5.6c0-0.1-0.2-0.3-0.5-0.3h-3.7l-1.1-3.5c-0.1-0.3-0.3-0.4-0.4-0.4s-0.3,0.1-0.4,0.3l-1.1,3.5h-3.7
		c-0.4,0.1-0.5,0.2-0.5,0.4c0,0.1,0,0.4,0.2,0.5l3,2.2l-1.2,3.5c-0.1,0.3,0,0.4,0.1,0.5c0.1,0,0.1,0.1,0.2,0.1c0.1,0,0.2,0,0.3-0.1
		l3-2.2l3,2.2c0.2,0.2,0.4,0.1,0.5,0s0.2-0.3,0.1-0.5l-1.1-3.5l3-2.2C66.5,5.9,66.5,5.7,66.5,5.6z"/>
	<g>
		<path class="st2" d="M36.8,69.7c1.2,0,1.9,0.7,1.9,0.7l-0.4,0.7c0,0-0.6-0.5-1.4-0.5c-1.1,0-1.7,0.8-1.7,1.7c0,1,0.6,1.8,1.7,1.8
			c0.9,0,1.5-0.6,1.5-0.6l0.5,0.7c0,0-0.7,0.8-2,0.8c-1.5,0-2.6-1.1-2.6-2.6C34.2,70.9,35.4,69.7,36.8,69.7z"/>
		<path class="st2" d="M42.8,69.7c1.5,0,2.6,1.1,2.6,2.6c0,1.5-1.1,2.6-2.6,2.6s-2.6-1.2-2.6-2.6C40.2,70.9,41.3,69.7,42.8,69.7z
			 M42.8,74.1c0.9,0,1.7-0.8,1.7-1.8c0-1-0.7-1.7-1.7-1.7s-1.7,0.7-1.7,1.7C41.1,73.3,41.8,74.1,42.8,74.1z"/>
		<path class="st2" d="M47.1,69.8h1.6c0.5,0,0.8,0,1,0.1c0.5,0.2,0.8,0.7,0.8,1.4c0,0.6-0.3,1.2-0.9,1.4v0c0,0,0.1,0.1,0.2,0.2
			l1,1.9h-1l-1-1.9h-0.9v1.9h-0.9V69.8z M48.9,72.2c0.5,0,0.8-0.3,0.8-0.8c0-0.5-0.2-0.8-0.9-0.8h-0.7v1.6H48.9z"/>
		<path class="st2" d="M52.7,69.8h1.9c0.9,0,1.6,0.7,1.6,1.6c0,1-0.7,1.7-1.6,1.7h-1v1.7h-0.9V69.8z M54.4,72.3
			c0.5,0,0.8-0.3,0.8-0.9c0-0.5-0.3-0.9-0.8-0.9h-0.9v1.7H54.4z"/>
		<path class="st2" d="M60.1,69.7c1.5,0,2.6,1.1,2.6,2.6c0,1.5-1.1,2.6-2.6,2.6c-1.5,0-2.6-1.2-2.6-2.6
			C57.5,70.9,58.6,69.7,60.1,69.7z M60.1,74.1c0.9,0,1.7-0.8,1.7-1.8c0-1-0.7-1.7-1.7-1.7s-1.7,0.7-1.7,1.7
			C58.5,73.3,59.2,74.1,60.1,74.1z"/>
		<path class="st2" d="M64.5,69.8h1.6c0.5,0,0.8,0,1,0.1c0.5,0.2,0.8,0.7,0.8,1.4c0,0.6-0.3,1.2-0.9,1.4v0c0,0,0.1,0.1,0.2,0.2
			l1,1.9h-1l-1-1.9h-0.9v1.9h-0.9V69.8z M66.2,72.2c0.5,0,0.8-0.3,0.8-0.8c0-0.5-0.2-0.8-0.9-0.8h-0.7v1.6H66.2z"/>
		<path class="st2" d="M72.5,73.6h-1.8l-0.4,1.3h-0.9l1.8-5h1l1.8,5h-0.9L72.5,73.6z M71.6,70.7c0,0-0.1,0.5-0.2,0.8L71,72.8h1.3
			l-0.4-1.3C71.8,71.2,71.7,70.7,71.6,70.7L71.6,70.7z"/>
		<path class="st2" d="M77.6,69.7c1.2,0,1.9,0.7,1.9,0.7L79,71.1c0,0-0.6-0.5-1.4-0.5c-1.1,0-1.7,0.8-1.7,1.7c0,1,0.6,1.8,1.7,1.8
			c0.9,0,1.5-0.6,1.5-0.6l0.5,0.7c0,0-0.7,0.8-2,0.8c-1.5,0-2.6-1.1-2.6-2.6C75,70.9,76.1,69.7,77.6,69.7z"/>
		<path class="st2" d="M81.3,69.8h0.9v5h-0.9V69.8z"/>
		<path class="st2" d="M86.6,69.7c1.5,0,2.6,1.1,2.6,2.6c0,1.5-1.1,2.6-2.6,2.6c-1.5,0-2.6-1.2-2.6-2.6C84,70.9,85.1,69.7,86.6,69.7
			z M86.6,74.1c0.9,0,1.7-0.8,1.7-1.8c0-1-0.7-1.7-1.7-1.7s-1.7,0.7-1.7,1.7C84.9,73.3,85.7,74.1,86.6,74.1z M86.7,68.5h0.9l-0.7,1
			h-0.7L86.7,68.5z"/>
		<path class="st2" d="M91,69.8h0.9l1.9,2.9c0.2,0.3,0.4,0.8,0.4,0.8h0c0,0,0-0.5,0-0.8v-2.9h0.9v5h-0.9L92.3,72
			c-0.2-0.3-0.4-0.8-0.4-0.8h0c0,0,0,0.5,0,0.8v2.9H91V69.8z"/>
		<path class="st2" d="M99.8,69.8h1.7c1.6,0,2.6,0.9,2.6,2.5c0,1.6-1,2.5-2.6,2.5h-1.7V69.8z M101.5,74.1c1,0,1.7-0.6,1.7-1.7
			c0-1.1-0.7-1.7-1.7-1.7h-0.8v3.5H101.5z"/>
		<path class="st2" d="M105.9,69.8h3v0.8h-2.1v1.3h1.7v0.8h-1.7v1.4h2.2v0.8h-3.1V69.8z"/>
		<path class="st2" d="M113.3,69.8h0.9v3.2c0,0.7,0.4,1.1,1.1,1.1c0.7,0,1.1-0.4,1.1-1.1v-3.2h0.9v3.2c0,1.1-0.8,1.9-2,1.9
			c-1.2,0-2-0.8-2-1.9V69.8z"/>
		<path class="st2" d="M119.4,69.8h0.9l1.9,2.9c0.2,0.3,0.4,0.8,0.4,0.8h0c0,0,0-0.5,0-0.8v-2.9h0.9v5h-0.9l-1.9-2.9
			c-0.2-0.3-0.4-0.8-0.4-0.8h0c0,0,0,0.5,0,0.8v2.9h-0.9V69.8z"/>
		<path class="st2" d="M125.7,69.8h0.9v5h-0.9V69.8z"/>
		<path class="st2" d="M128.1,69.8h1l1.1,3.3c0.1,0.3,0.2,0.7,0.2,0.7h0c0,0,0.1-0.4,0.2-0.7l1.1-3.3h1l-1.8,5h-0.9L128.1,69.8z"/>
		<path class="st2" d="M134.2,69.8h3v0.8h-2.1v1.3h1.7v0.8h-1.7v1.4h2.2v0.8h-3.1V69.8z"/>
		<path class="st2" d="M139.1,69.8h1.6c0.5,0,0.8,0,1,0.1c0.5,0.2,0.8,0.7,0.8,1.4c0,0.6-0.3,1.2-0.9,1.4v0c0,0,0.1,0.1,0.2,0.2
			l1,1.9h-1l-1-1.9H140v1.9h-0.9V69.8z M140.8,72.2c0.5,0,0.8-0.3,0.8-0.8c0-0.5-0.2-0.8-0.9-0.8H140v1.6H140.8z"/>
		<path class="st2" d="M144.7,73.6c0,0,0.5,0.5,1.3,0.5c0.4,0,0.7-0.2,0.7-0.6c0-0.9-2.4-0.7-2.4-2.3c0-0.8,0.7-1.5,1.7-1.5
			c1,0,1.5,0.5,1.5,0.5l-0.4,0.7c0,0-0.5-0.4-1.1-0.4c-0.4,0-0.8,0.2-0.8,0.6c0,0.9,2.4,0.7,2.4,2.3c0,0.8-0.6,1.5-1.7,1.5
			c-1.1,0-1.7-0.7-1.7-0.7L144.7,73.6z"/>
		<path class="st2" d="M149.4,69.8h0.9v5h-0.9V69.8z"/>
		<path class="st2" d="M152.4,69.8h1.7c1.6,0,2.6,0.9,2.6,2.5c0,1.6-1,2.5-2.6,2.5h-1.7V69.8z M154.1,74.1c1,0,1.7-0.6,1.7-1.7
			c0-1.1-0.7-1.7-1.7-1.7h-0.8v3.5H154.1z"/>
		<path class="st2" d="M161,73.6h-1.8l-0.4,1.3h-0.9l1.8-5h1l1.8,5h-0.9L161,73.6z M160.1,70.7c0,0-0.1,0.5-0.2,0.8l-0.4,1.3h1.3
			l-0.4-1.3C160.2,71.2,160.1,70.7,160.1,70.7L160.1,70.7z"/>
		<path class="st2" d="M163.9,69.8h1.7c1.6,0,2.6,0.9,2.6,2.5c0,1.6-1,2.5-2.6,2.5h-1.7V69.8z M165.5,74.1c1,0,1.7-0.6,1.7-1.7
			c0-1.1-0.7-1.7-1.7-1.7h-0.8v3.5H165.5z"/>
		<path class="st2" d="M170,69.8h3v0.8h-2.1v1.3h1.7v0.8h-1.7v1.4h2.2v0.8H170V69.8z"/>
		<path class="st2" d="M175,73.6c0,0,0.5,0.5,1.3,0.5c0.4,0,0.7-0.2,0.7-0.6c0-0.9-2.4-0.7-2.4-2.3c0-0.8,0.7-1.5,1.7-1.5
			c1,0,1.5,0.5,1.5,0.5l-0.4,0.7c0,0-0.5-0.4-1.1-0.4c-0.4,0-0.8,0.2-0.8,0.6c0,0.9,2.4,0.7,2.4,2.3c0,0.8-0.6,1.5-1.7,1.5
			c-1.1,0-1.7-0.7-1.7-0.7L175,73.6z"/>
		<path class="st2" d="M182.2,69.8h1.9c0.9,0,1.6,0.7,1.6,1.6c0,1-0.7,1.7-1.6,1.7h-1v1.7h-0.9V69.8z M184,72.3
			c0.5,0,0.8-0.3,0.8-0.9c0-0.5-0.3-0.9-0.8-0.9h-0.9v1.7H184z"/>
		<path class="st2" d="M187.4,69.8h1.6c0.5,0,0.8,0,1,0.1c0.5,0.2,0.8,0.7,0.8,1.4c0,0.6-0.3,1.2-0.9,1.4v0c0,0,0.1,0.1,0.2,0.2
			l1,1.9h-1l-1-1.9h-0.9v1.9h-0.9V69.8z M189.2,72.2c0.5,0,0.8-0.3,0.8-0.8c0-0.5-0.2-0.8-0.9-0.8h-0.7v1.6H189.2z"/>
		<path class="st2" d="M193,69.8h0.9v5H193V69.8z"/>
		<path class="st2" d="M195.4,69.8h1l1.1,3.3c0.1,0.3,0.2,0.7,0.2,0.7h0c0,0,0.1-0.4,0.2-0.7l1.1-3.3h1l-1.8,5h-0.9L195.4,69.8z"/>
		<path class="st2" d="M203.7,73.6H202l-0.4,1.3h-0.9l1.8-5h1l1.8,5h-0.9L203.7,73.6z M202.8,70.7c0,0-0.1,0.5-0.2,0.8l-0.4,1.3h1.3
			l-0.4-1.3C203,71.2,202.9,70.7,202.8,70.7L202.8,70.7z"/>
		<path class="st2" d="M206.6,69.8h1.7c1.6,0,2.6,0.9,2.6,2.5c0,1.6-1,2.5-2.6,2.5h-1.7V69.8z M208.3,74.1c1,0,1.7-0.6,1.7-1.7
			c0-1.1-0.7-1.7-1.7-1.7h-0.8v3.5H208.3z"/>
		<path class="st2" d="M215.2,73.6h-1.8l-0.4,1.3H212l1.8-5h1l1.8,5h-0.9L215.2,73.6z M214.3,70.7c0,0-0.1,0.5-0.2,0.8l-0.4,1.3h1.3
			l-0.4-1.3C214.4,71.2,214.3,70.7,214.3,70.7L214.3,70.7z"/>
		<path class="st2" d="M218.2,73.6c0,0,0.5,0.5,1.3,0.5c0.4,0,0.7-0.2,0.7-0.6c0-0.9-2.4-0.7-2.4-2.3c0-0.8,0.7-1.5,1.7-1.5
			c1,0,1.5,0.5,1.5,0.5l-0.4,0.7c0,0-0.5-0.4-1.1-0.4c-0.4,0-0.8,0.2-0.8,0.6c0,0.9,2.4,0.7,2.4,2.3c0,0.8-0.6,1.5-1.7,1.5
			c-1.1,0-1.7-0.7-1.7-0.7L218.2,73.6z"/>
	</g>
</g>
</svg>
